# Blender v3.0.1 OBJ File: ''
# www.blender.org
mtllib center.mtl
o base_link
v -20.798353 -3.975491 7.583351
v -20.985727 -3.875488 4.784325
v -20.985727 -3.975491 4.784325
v -20.798353 -3.875488 1.985298
v -20.798353 -3.975491 1.985298
v -20.239580 -3.875488 -0.763779
v -20.239580 -3.975491 -0.763779
v -19.319374 -3.875488 -3.413849
v -19.319374 -3.975491 -3.413849
v -18.054159 -3.875488 -5.917625
v -18.054159 -3.975491 -5.917625
v -16.466515 -3.875488 -8.230423
v -16.466515 -3.975491 -8.230423
v -14.584767 -3.875488 -10.310974
v -14.584767 -3.975491 -10.310974
v -12.442501 -3.875488 -12.122147
v -12.442501 -3.975491 -12.122147
v -10.077944 -3.875488 -13.631622
v -10.077944 -3.975491 -13.631622
v -7.533291 -3.875488 -14.812469
v -7.533291 -3.975491 -14.812469
v -4.853951 -3.875488 -15.643608
v -4.853951 -3.975491 -15.643608
v -2.087737 -3.875488 -16.110210
v -2.087737 -3.975491 -16.110210
v 0.715987 -3.875488 -16.203949
v 0.715987 -3.975491 -16.203949
v 3.507189 -3.875488 -15.923149
v 3.507189 -3.975491 -15.923149
v 6.236059 -3.875488 -15.272827
v 6.236059 -3.975491 -15.272827
v 8.853904 -3.875488 -14.264584
v 8.853904 -3.975491 -14.264584
v 11.314003 -3.875488 -12.916412
v 11.314003 -3.975491 -12.916412
v 13.572458 -3.875488 -11.252373
v 13.572458 -3.975491 -11.252373
v 15.588967 -3.875488 -9.302155
v 15.588967 -3.975491 -9.302155
v 17.327545 -3.875488 -7.100563
v 17.327545 -3.975491 -7.100563
v 18.757170 -3.875488 -4.686890
v 18.757170 -3.975491 -4.686890
v 19.852324 -3.875488 -2.104198
v 19.852324 -3.975491 -2.104198
v 20.593470 -3.875488 0.601418
v 20.593470 -3.975491 0.601418
v 20.967379 -3.875488 3.381680
v 20.967379 -3.975491 3.381680
v 20.967379 -3.875488 6.186970
v 20.967379 -3.975491 6.186970
v 20.593470 -3.875488 8.967228
v 20.593470 -3.975491 8.967228
v 19.852324 -3.875488 11.672840
v 19.852324 -3.975491 11.672840
v 18.757170 -3.875488 14.255543
v 18.757170 -3.975491 14.255543
v 17.327545 -3.875488 16.669209
v 17.327545 -3.975491 16.669209
v 15.588967 -3.875488 18.870808
v 15.588967 -3.975491 18.870808
v 13.572458 -3.875488 20.821018
v 13.572458 -3.975491 20.821018
v 11.314003 -3.875488 22.485065
v 11.314003 -3.975491 22.485065
v 8.853904 -3.875488 23.833241
v 8.853904 -3.975491 23.833241
v 6.236059 -3.875488 24.841480
v 6.236059 -3.975491 24.841480
v 3.507189 -3.875488 25.491795
v 3.507189 -3.975491 25.491795
v 0.715987 -3.875488 25.772602
v 0.715987 -3.975491 25.772602
v -2.087737 -3.875488 25.678852
v -2.087737 -3.975491 25.678852
v -4.853951 -3.875488 25.212254
v -4.853951 -3.975491 25.212254
v -7.533291 -3.875488 24.381123
v -7.533291 -3.975491 24.381123
v -10.077944 -3.875488 23.200275
v -10.077944 -3.975491 23.200275
v -12.442501 -3.875488 21.690800
v -12.442501 -3.975491 21.690800
v -14.584767 -3.875488 19.879627
v -14.584767 -3.975491 19.879627
v -16.466515 -3.875488 17.799076
v -16.466515 -3.975491 17.799076
v -18.054159 -3.875488 15.486271
v -18.054159 -3.975491 15.486271
v -19.319374 -3.875488 12.982502
v -19.319374 -3.975491 12.982502
v -20.239580 -3.875488 10.332432
v -20.239580 -3.975491 10.332432
v -20.798353 -3.875488 7.583351
v 99.832306 -3.875488 43.784321
v 99.832306 -3.875488 -156.215668
v 99.832306 96.124512 43.784321
v 99.832306 96.124512 -156.215668
v -100.167694 -3.875488 43.784321
v -100.167694 96.124512 43.784321
v -100.167694 -3.875488 -156.215668
v -100.167694 96.124512 -156.215668
vn -0.9978 0.0000 0.0668
vn -0.9978 0.0000 -0.0668
vn -0.9800 0.0000 -0.1992
vn -0.9447 0.0000 -0.3280
vn -0.8925 0.0000 -0.4510
vn -0.8244 0.0000 -0.5659
vn -0.7417 0.0000 -0.6708
vn -0.6456 0.0000 -0.7637
vn -0.5381 0.0000 -0.8429
vn -0.4209 0.0000 -0.9071
vn -0.2963 0.0000 -0.9551
vn -0.1663 0.0000 -0.9861
vn -0.0334 0.0000 -0.9994
vn 0.1001 0.0000 -0.9950
vn 0.2318 0.0000 -0.9728
vn 0.3594 0.0000 -0.9332
vn 0.4806 0.0000 -0.8769
vn 0.5932 0.0000 -0.8051
vn 0.6952 0.0000 -0.7188
vn 0.7848 0.0000 -0.6197
vn 0.8604 0.0000 -0.5096
vn 0.9206 0.0000 -0.3904
vn 0.9645 0.0000 -0.2642
vn 0.9911 0.0000 -0.1333
vn 1.0000 0.0000 0.0000
vn 0.9911 0.0000 0.1333
vn 0.9645 0.0000 0.2642
vn 0.9207 0.0000 0.3904
vn 0.8604 0.0000 0.5096
vn 0.7848 0.0000 0.6197
vn 0.6952 0.0000 0.7188
vn 0.5932 0.0000 0.8051
vn 0.4806 0.0000 0.8769
vn 0.3594 0.0000 0.9332
vn 0.2318 0.0000 0.9728
vn 0.1001 0.0000 0.9950
vn -0.0334 0.0000 0.9994
vn -0.1663 0.0000 0.9861
vn -0.2963 0.0000 0.9551
vn -0.4209 0.0000 0.9071
vn -0.5381 0.0000 0.8429
vn -0.6456 0.0000 0.7637
vn -0.7417 0.0000 0.6708
vn -0.8244 0.0000 0.5659
vn -0.8925 0.0000 0.4510
vn -0.9447 0.0000 0.3280
vn -0.9800 0.0000 0.1992
vn 0.0000 -1.0000 0.0000
vn 0.0000 0.0000 1.0000
vn -1.0000 0.0000 0.0000
vn 0.0000 0.0000 -1.0000
vn 0.0000 1.0000 0.0000
usemtl None
s off
f 1//1 2//1 3//1
f 3//2 2//2 4//2
f 3//2 4//2 5//2
f 5//3 4//3 6//3
f 5//3 6//3 7//3
f 7//4 6//4 8//4
f 7//4 8//4 9//4
f 9//5 8//5 10//5
f 9//5 10//5 11//5
f 11//6 10//6 12//6
f 11//6 12//6 13//6
f 13//7 12//7 14//7
f 13//7 14//7 15//7
f 15//8 14//8 16//8
f 15//8 16//8 17//8
f 17//9 16//9 18//9
f 17//9 18//9 19//9
f 19//10 18//10 20//10
f 19//10 20//10 21//10
f 21//11 20//11 22//11
f 21//11 22//11 23//11
f 23//12 22//12 24//12
f 23//12 24//12 25//12
f 25//13 24//13 26//13
f 25//13 26//13 27//13
f 27//14 26//14 28//14
f 27//14 28//14 29//14
f 29//15 28//15 30//15
f 29//15 30//15 31//15
f 31//16 30//16 32//16
f 31//16 32//16 33//16
f 33//17 32//17 34//17
f 33//17 34//17 35//17
f 35//18 34//18 36//18
f 35//18 36//18 37//18
f 37//19 36//19 38//19
f 37//19 38//19 39//19
f 39//20 38//20 40//20
f 39//20 40//20 41//20
f 41//21 40//21 42//21
f 41//21 42//21 43//21
f 43//22 42//22 44//22
f 43//22 44//22 45//22
f 45//23 44//23 46//23
f 45//23 46//23 47//23
f 47//24 46//24 48//24
f 47//24 48//24 49//24
f 49//25 48//25 50//25
f 49//25 50//25 51//25
f 51//26 50//26 52//26
f 51//26 52//26 53//26
f 53//27 52//27 54//27
f 53//27 54//27 55//27
f 55//28 54//28 56//28
f 55//28 56//28 57//28
f 57//29 56//29 58//29
f 57//29 58//29 59//29
f 59//30 58//30 60//30
f 59//30 60//30 61//30
f 61//31 60//31 62//31
f 61//31 62//31 63//31
f 63//32 62//32 64//32
f 63//32 64//32 65//32
f 65//33 64//33 66//33
f 65//33 66//33 67//33
f 67//34 66//34 68//34
f 67//34 68//34 69//34
f 69//35 68//35 70//35
f 69//35 70//35 71//35
f 71//36 70//36 72//36
f 71//36 72//36 73//36
f 73//37 72//37 74//37
f 73//37 74//37 75//37
f 75//38 74//38 76//38
f 75//38 76//38 77//38
f 77//39 76//39 78//39
f 77//39 78//39 79//39
f 79//40 78//40 80//40
f 79//40 80//40 81//40
f 81//41 80//41 82//41
f 81//41 82//41 83//41
f 83//42 82//42 84//42
f 83//42 84//42 85//42
f 85//43 84//43 86//43
f 85//43 86//43 87//43
f 87//44 86//44 88//44
f 87//44 88//44 89//44
f 89//45 88//45 90//45
f 89//45 90//45 91//45
f 91//46 90//46 92//46
f 91//46 92//46 93//46
f 93//47 92//47 94//47
f 93//47 94//47 1//47
f 1//1 94//1 2//1
f 3//48 5//48 1//48
f 1//48 5//48 93//48
f 93//48 5//48 7//48
f 93//48 7//48 91//48
f 91//48 7//48 89//48
f 89//48 7//48 87//48
f 87//48 7//48 85//48
f 85//48 7//48 83//48
f 83//48 7//48 81//48
f 81//48 7//48 79//48
f 79//48 7//48 77//48
f 77//48 7//48 75//48
f 75//48 7//48 73//48
f 73//48 7//48 71//48
f 71//48 7//48 9//48
f 71//48 9//48 69//48
f 69//48 9//48 67//48
f 67//48 9//48 65//48
f 65//48 9//48 63//48
f 63//48 9//48 61//48
f 61//48 9//48 59//48
f 59//48 9//48 57//48
f 57//48 9//48 55//48
f 55//48 9//48 53//48
f 53//48 9//48 51//48
f 51//48 9//48 49//48
f 49//48 9//48 47//48
f 47//48 9//48 45//48
f 45//48 9//48 43//48
f 43//48 9//48 11//48
f 43//48 11//48 41//48
f 41//48 11//48 13//48
f 41//48 13//48 39//48
f 39//48 13//48 15//48
f 39//48 15//48 37//48
f 37//48 15//48 17//48
f 37//48 17//48 35//48
f 35//48 17//48 19//48
f 35//48 19//48 33//48
f 33//48 19//48 21//48
f 33//48 21//48 31//48
f 31//48 21//48 23//48
f 31//48 23//48 29//48
f 29//48 23//48 25//48
f 29//48 25//48 27//48
f 95//25 96//25 97//25
f 97//25 96//25 98//25
f 99//49 95//49 100//49
f 100//49 95//49 97//49
f 101//50 99//50 102//50
f 102//50 99//50 100//50
f 96//51 101//51 98//51
f 98//51 101//51 102//51
f 98//52 102//52 97//52
f 97//52 102//52 100//52
f 4//48 2//48 99//48
f 99//48 2//48 94//48
f 99//48 94//48 92//48
f 92//48 90//48 99//48
f 99//48 90//48 88//48
f 99//48 88//48 86//48
f 86//48 84//48 99//48
f 99//48 84//48 82//48
f 99//48 82//48 80//48
f 80//48 78//48 99//48
f 99//48 78//48 76//48
f 99//48 76//48 74//48
f 74//48 72//48 99//48
f 99//48 72//48 95//48
f 95//48 72//48 70//48
f 95//48 70//48 68//48
f 68//48 66//48 95//48
f 95//48 66//48 64//48
f 95//48 64//48 62//48
f 62//48 60//48 95//48
f 95//48 60//48 58//48
f 95//48 58//48 56//48
f 56//48 54//48 95//48
f 95//48 54//48 52//48
f 95//48 52//48 50//48
f 50//48 48//48 95//48
f 95//48 48//48 46//48
f 95//48 46//48 44//48
f 44//48 42//48 95//48
f 95//48 42//48 96//48
f 96//48 42//48 40//48
f 96//48 40//48 38//48
f 38//48 36//48 96//48
f 96//48 36//48 34//48
f 96//48 34//48 32//48
f 32//48 30//48 96//48
f 96//48 30//48 28//48
f 96//48 28//48 26//48
f 96//48 26//48 101//48
f 101//48 26//48 24//48
f 101//48 24//48 22//48
f 22//48 20//48 101//48
f 101//48 20//48 18//48
f 101//48 18//48 16//48
f 16//48 14//48 101//48
f 101//48 14//48 12//48
f 101//48 12//48 10//48
f 101//48 10//48 99//48
f 99//48 10//48 8//48
f 99//48 8//48 6//48
f 6//48 4//48 99//48
